{
	"asset":{
		"generator":"Khronos glTF Blender I/O v4.0.43",
		"version":"2.0"
	},
	"scene":0,
	"scenes":[
		{
			"name":"Scene",
			"nodes":[
				0
			]
		}
	],
	"nodes":[
		{
			"mesh":0,
			"name":"walls"
		}
	],
	"materials":[
		{
			"doubleSided":true,
			"name":"Atlas",
			"pbrMetallicRoughness":{
				"baseColorTexture":{
					"index":0
				},
				"metallicFactor":0,
				"roughnessFactor":0.5
			}
		}
	],
	"meshes":[
		{
			"name":"Plane.002",
			"primitives":[
				{
					"attributes":{
						"POSITION":0,
						"NORMAL":1,
						"TEXCOORD_0":2
					},
					"indices":3,
					"material":0
				}
			]
		}
	],
	"textures":[
		{
			"sampler":0,
			"source":0
		}
	],
	"images":[
		{
			"mimeType":"image/png",
			"name":"atlas",
			"uri":"atlas.png"
		}
	],
	"accessors":[
		{
			"bufferView":0,
			"componentType":5126,
			"count":158,
			"max":[
				6.129685878753662,
				4.017809867858887,
				4.85777473449707
			],
			"min":[
				-6.129685878753662,
				0.006903171539306641,
				-2.443984031677246
			],
			"type":"VEC3"
		},
		{
			"bufferView":1,
			"componentType":5126,
			"count":158,
			"type":"VEC3"
		},
		{
			"bufferView":2,
			"componentType":5126,
			"count":158,
			"type":"VEC2"
		},
		{
			"bufferView":3,
			"componentType":5123,
			"count":252,
			"type":"SCALAR"
		}
	],
	"bufferViews":[
		{
			"buffer":0,
			"byteLength":1896,
			"byteOffset":0,
			"target":34962
		},
		{
			"buffer":0,
			"byteLength":1896,
			"byteOffset":1896,
			"target":34962
		},
		{
			"buffer":0,
			"byteLength":1264,
			"byteOffset":3792,
			"target":34962
		},
		{
			"buffer":0,
			"byteLength":504,
			"byteOffset":5056,
			"target":34963
		}
	],
	"samplers":[
		{
			"magFilter":9729,
			"minFilter":9987
		}
	],
	"buffers":[
		{
			"byteLength":5560,
			"uri":"room.bin"
		}
	]
}
