{
	"asset":{
		"generator":"Khronos glTF Blender I/O v4.0.43",
		"version":"2.0"
	},
	"scene":0,
	"scenes":[
		{
			"name":"Scene",
			"nodes":[
				0
			]
		}
	],
	"nodes":[
		{
			"mesh":0,
			"name":"seeker.001"
		}
	],
	"materials":[
		{
			"doubleSided":true,
			"name":"Atlas",
			"pbrMetallicRoughness":{
				"baseColorTexture":{
					"index":0
				},
				"metallicFactor":0,
				"roughnessFactor":0.5
			}
		}
	],
	"meshes":[
		{
			"name":"Plane.006",
			"primitives":[
				{
					"attributes":{
						"POSITION":0,
						"NORMAL":1,
						"TEXCOORD_0":2
					},
					"indices":3,
					"material":0
				}
			]
		}
	],
	"textures":[
		{
			"sampler":0,
			"source":0
		}
	],
	"images":[
		{
			"mimeType":"image/png",
			"name":"atlas",
			"uri":"atlas.png"
		}
	],
	"accessors":[
		{
			"bufferView":0,
			"componentType":5126,
			"count":2028,
			"max":[
				0.1670941859483719,
				0.06523841619491577,
				0.16496805846691132
			],
			"min":[
				-0.1655561774969101,
				-0.0837181881070137,
				-0.16773788630962372
			],
			"type":"VEC3"
		},
		{
			"bufferView":1,
			"componentType":5126,
			"count":2028,
			"type":"VEC3"
		},
		{
			"bufferView":2,
			"componentType":5126,
			"count":2028,
			"type":"VEC2"
		},
		{
			"bufferView":3,
			"componentType":5123,
			"count":2184,
			"type":"SCALAR"
		}
	],
	"bufferViews":[
		{
			"buffer":0,
			"byteLength":24336,
			"byteOffset":0,
			"target":34962
		},
		{
			"buffer":0,
			"byteLength":24336,
			"byteOffset":24336,
			"target":34962
		},
		{
			"buffer":0,
			"byteLength":16224,
			"byteOffset":48672,
			"target":34962
		},
		{
			"buffer":0,
			"byteLength":4368,
			"byteOffset":64896,
			"target":34963
		}
	],
	"samplers":[
		{
			"magFilter":9729,
			"minFilter":9987
		}
	],
	"buffers":[
		{
			"byteLength":69264,
			"uri":"seeker.bin"
		}
	]
}
