{
	"asset":{
		"generator":"Khronos glTF Blender I/O v4.0.43",
		"version":"2.0"
	},
	"scene":0,
	"scenes":[
		{
			"name":"Scene",
			"nodes":[
				0
			]
		}
	],
	"nodes":[
		{
			"mesh":0,
			"name":"wolf.001"
		}
	],
	"materials":[
		{
			"doubleSided":true,
			"name":"Atlas",
			"pbrMetallicRoughness":{
				"baseColorTexture":{
					"index":0
				},
				"metallicFactor":0,
				"roughnessFactor":0.5
			}
		}
	],
	"meshes":[
		{
			"name":"Cube.034",
			"primitives":[
				{
					"attributes":{
						"POSITION":0,
						"NORMAL":1,
						"TEXCOORD_0":2
					},
					"indices":3,
					"material":0
				}
			]
		}
	],
	"textures":[
		{
			"sampler":0,
			"source":0
		}
	],
	"images":[
		{
			"mimeType":"image/png",
			"name":"atlas",
			"uri":"atlas.png"
		}
	],
	"accessors":[
		{
			"bufferView":0,
			"componentType":5126,
			"count":1242,
			"max":[
				0.03917286917567253,
				0.12561264634132385,
				0.04291824251413345
			],
			"min":[
				-0.040596697479486465,
				-0.1379898190498352,
				-0.06434901803731918
			],
			"type":"VEC3"
		},
		{
			"bufferView":1,
			"componentType":5126,
			"count":1242,
			"type":"VEC3"
		},
		{
			"bufferView":2,
			"componentType":5126,
			"count":1242,
			"type":"VEC2"
		},
		{
			"bufferView":3,
			"componentType":5123,
			"count":1254,
			"type":"SCALAR"
		}
	],
	"bufferViews":[
		{
			"buffer":0,
			"byteLength":14904,
			"byteOffset":0,
			"target":34962
		},
		{
			"buffer":0,
			"byteLength":14904,
			"byteOffset":14904,
			"target":34962
		},
		{
			"buffer":0,
			"byteLength":9936,
			"byteOffset":29808,
			"target":34962
		},
		{
			"buffer":0,
			"byteLength":2508,
			"byteOffset":39744,
			"target":34963
		}
	],
	"samplers":[
		{
			"magFilter":9729,
			"minFilter":9987
		}
	],
	"buffers":[
		{
			"byteLength":42252,
			"uri":"wolf.bin"
		}
	]
}
